<?xml version="1.0" encoding="UTF-8"?>
<svg id="Layer_1" data-name="Layer 1" xmlns="http://www.w3.org/2000/svg" width="1140" height="250" xmlns:xlink="http://www.w3.org/1999/xlink" viewBox="0 0 1140 250">
  <defs>
    <radialGradient id="radial-gradient" cx="1172.39" cy="-273" fx="1172.39" fy="-273" r="139.06" gradientTransform="translate(1646.76 635.41) rotate(-166.72) scale(1 -.87)" gradientUnits="userSpaceOnUse">
      <stop offset="0" stop-color="#dead0a"/>
      <stop offset=".32" stop-color="#deab0a"/>
      <stop offset=".45" stop-color="#dea30c"/>
      <stop offset=".54" stop-color="#df970f"/>
      <stop offset=".62" stop-color="#e08614"/>
      <stop offset=".69" stop-color="#e26f1a"/>
      <stop offset=".75" stop-color="#e45321"/>
      <stop offset=".81" stop-color="#e7312a"/>
      <stop offset=".86" stop-color="#ea0c33"/>
      <stop offset=".87" stop-color="#eb0037"/>
    </radialGradient>
    <linearGradient id="linear-gradient" x1="511.07" y1="170.05" x2="511.07" y2="209.52" gradientTransform="translate(1060.92) rotate(-180) scale(1 -1)" gradientUnits="userSpaceOnUse">
      <stop offset="0" stop-color="#dead0a"/>
      <stop offset="1" stop-color="#eb0037"/>
    </linearGradient>
    <linearGradient id="linear-gradient-2" x1="528.93" y1="141.34" x2="528.93" y2="180.5" xlink:href="#linear-gradient"/>
    <linearGradient id="linear-gradient-3" x1="496.65" y1="151.08" x2="496.65" y2="190.42" xlink:href="#linear-gradient"/>
    <linearGradient id="linear-gradient-4" x1="510.9" y1="123.46" x2="510.9" y2="162.51" xlink:href="#linear-gradient"/>
    <linearGradient id="linear-gradient-5" x1="543.14" y1="113.89" x2="543.14" y2="152.76" xlink:href="#linear-gradient"/>
    <linearGradient id="linear-gradient-6" x1="561.21" y1="131.61" x2="561.21" y2="170.58" xlink:href="#linear-gradient"/>
    <linearGradient id="linear-gradient-7" x1="543.38" y1="160.16" x2="543.38" y2="199.44" xlink:href="#linear-gradient"/>
    <linearGradient id="linear-gradient-8" x1="445.57" y1="171.54" x2="445.57" y2="199.32" xlink:href="#linear-gradient"/>
    <linearGradient id="linear-gradient-9" x1="452.72" y1="143.06" x2="452.72" y2="176.98" xlink:href="#linear-gradient"/>
    <linearGradient id="linear-gradient-10" x1="452.76" y1="190.32" x2="452.76" y2="224.47" xlink:href="#linear-gradient"/>
    <linearGradient id="linear-gradient-11" x1="478.65" y1="133.03" x2="478.65" y2="172.27" xlink:href="#linear-gradient"/>
    <linearGradient id="linear-gradient-12" x1="580.41" y1="130.73" x2="580.41" y2="158.1" xlink:href="#linear-gradient"/>
    <linearGradient id="linear-gradient-13" x1="478.75" y1="179.95" x2="478.75" y2="219.6" xlink:href="#linear-gradient"/>
    <linearGradient id="linear-gradient-14" x1="464.37" y1="160.81" x2="464.37" y2="200.34" xlink:href="#linear-gradient"/>
    <linearGradient id="linear-gradient-15" x1="496.79" y1="197.81" x2="496.79" y2="237.57" xlink:href="#linear-gradient"/>
    <linearGradient id="linear-gradient-16" x1="464.44" y1="207.87" x2="464.44" y2="247.82" xlink:href="#linear-gradient"/>
    <linearGradient id="linear-gradient-17" x1="445.6" y1="218.96" x2="445.6" y2="246.77" xlink:href="#linear-gradient"/>
    <linearGradient id="linear-gradient-18" x1="529.15" y1="187.75" x2="529.15" y2="227.33" xlink:href="#linear-gradient"/>
    <linearGradient id="linear-gradient-19" x1="580.74" y1="176.79" x2="580.74" y2="204.19" xlink:href="#linear-gradient"/>
    <linearGradient id="linear-gradient-20" x1="571.29" y1="107.05" x2="571.29" y2="142.21" xlink:href="#linear-gradient"/>
    <linearGradient id="linear-gradient-21" x1="445.54" y1="125.36" x2="445.54" y2="153.12" xlink:href="#linear-gradient"/>
    <linearGradient id="linear-gradient-22" x1="561.5" y1="177.7" x2="561.5" y2="217.09" xlink:href="#linear-gradient"/>
    <linearGradient id="linear-gradient-23" x1="560.94" y1="86.74" x2="560.94" y2="125.3" xlink:href="#linear-gradient"/>
    <linearGradient id="linear-gradient-24" x1="580.1" y1="85.89" x2="580.1" y2="113.22" xlink:href="#linear-gradient"/>
    <linearGradient id="linear-gradient-25" x1="571.59" y1="153.08" x2="571.59" y2="188.54" xlink:href="#linear-gradient"/>
    <linearGradient id="linear-gradient-26" x1="464.31" y1="114.98" x2="464.31" y2="154.1" xlink:href="#linear-gradient"/>
    <linearGradient id="linear-gradient-27" x1="528.73" y1="96.15" x2="528.73" y2="134.9" xlink:href="#linear-gradient"/>
    <linearGradient id="linear-gradient-28" x1="496.52" y1="105.57" x2="496.52" y2="144.5" xlink:href="#linear-gradient"/>
    <linearGradient id="linear-gradient-29" x1="434.49" y1="118.43" x2="434.49" y2="146.96" xlink:href="#linear-gradient"/>
    <linearGradient id="linear-gradient-30" x1="434.49" y1="140.85" x2="434.49" y2="169.39" xlink:href="#linear-gradient"/>
    <linearGradient id="linear-gradient-31" x1="434.49" y1="164.45" x2="434.49" y2="192.99" xlink:href="#linear-gradient"/>
    <linearGradient id="linear-gradient-32" x1="434.49" y1="188.05" x2="434.49" y2="216.58" xlink:href="#linear-gradient"/>
    <linearGradient id="linear-gradient-33" x1="434.79" y1="211.15" x2="434.79" y2="241.04" xlink:href="#linear-gradient"/>
    <linearGradient id="linear-gradient-34" x1="208.77" y1="195.38" x2="208.77" y2="17.63" gradientTransform="translate(358.23) rotate(-180) scale(1 -1)" gradientUnits="userSpaceOnUse">
      <stop offset="0" stop-color="#2a59be"/>
      <stop offset=".54" stop-color="#02adef"/>
      <stop offset=".6" stop-color="#06aeef"/>
      <stop offset=".65" stop-color="#12b2f0"/>
      <stop offset=".71" stop-color="#27b9f1"/>
      <stop offset=".77" stop-color="#44c2f3"/>
      <stop offset=".83" stop-color="#6acef5"/>
      <stop offset=".89" stop-color="#98ddf8"/>
      <stop offset=".95" stop-color="#cdeffb"/>
      <stop offset="1" stop-color="#fff"/>
    </linearGradient>
    <linearGradient id="linear-gradient-35" x1="211.08" y1="196.41" x2="211.08" y2="20.54" gradientTransform="translate(358.23) rotate(-180) scale(1 -1)" gradientUnits="userSpaceOnUse">
      <stop offset="0" stop-color="#2a59be"/>
      <stop offset=".44" stop-color="#099ee7"/>
      <stop offset=".5" stop-color="#07a0e8"/>
      <stop offset=".53" stop-color="#03a8ec"/>
      <stop offset=".54" stop-color="#02adef"/>
      <stop offset=".6" stop-color="#06aeef"/>
      <stop offset=".65" stop-color="#12b2f0"/>
      <stop offset=".71" stop-color="#27b9f1"/>
      <stop offset=".77" stop-color="#44c2f3"/>
      <stop offset=".83" stop-color="#6acef5"/>
      <stop offset=".89" stop-color="#98ddf8"/>
      <stop offset=".95" stop-color="#cdeffb"/>
      <stop offset="1" stop-color="#fff"/>
    </linearGradient>
    <linearGradient id="linear-gradient-36" x1="213.38" y1="197.44" x2="213.38" y2="23.44" gradientTransform="translate(358.23) rotate(-180) scale(1 -1)" gradientUnits="userSpaceOnUse">
      <stop offset="0" stop-color="#2a59be"/>
      <stop offset=".44" stop-color="#09a0e8"/>
      <stop offset=".5" stop-color="#07a2e9"/>
      <stop offset=".54" stop-color="#03aaed"/>
      <stop offset=".54" stop-color="#02adef"/>
      <stop offset=".6" stop-color="#06aeef"/>
      <stop offset=".65" stop-color="#12b2f0"/>
      <stop offset=".71" stop-color="#27b9f1"/>
      <stop offset=".77" stop-color="#44c2f3"/>
      <stop offset=".83" stop-color="#6acef5"/>
      <stop offset=".89" stop-color="#98ddf8"/>
      <stop offset=".95" stop-color="#cdeffb"/>
      <stop offset="1" stop-color="#fff"/>
    </linearGradient>
    <linearGradient id="linear-gradient-37" x1="215.69" y1="198.46" x2="215.69" y2="26.35" gradientTransform="translate(358.23) rotate(-180) scale(1 -1)" gradientUnits="userSpaceOnUse">
      <stop offset="0" stop-color="#2a59be"/>
      <stop offset=".44" stop-color="#08a1e8"/>
      <stop offset=".5" stop-color="#06a3e9"/>
      <stop offset=".54" stop-color="#02abee"/>
      <stop offset=".54" stop-color="#02adef"/>
      <stop offset=".6" stop-color="#06aeef"/>
      <stop offset=".65" stop-color="#12b2f0"/>
      <stop offset=".71" stop-color="#27b9f1"/>
      <stop offset=".77" stop-color="#44c2f3"/>
      <stop offset=".83" stop-color="#6acef5"/>
      <stop offset=".89" stop-color="#98ddf8"/>
      <stop offset=".95" stop-color="#cdeffb"/>
      <stop offset="1" stop-color="#fff"/>
    </linearGradient>
    <linearGradient id="linear-gradient-38" x1="217.99" y1="199.49" x2="217.99" y2="29.26" gradientTransform="translate(358.23) rotate(-180) scale(1 -1)" gradientUnits="userSpaceOnUse">
      <stop offset="0" stop-color="#2a59be"/>
      <stop offset=".44" stop-color="#07a3e9"/>
      <stop offset=".51" stop-color="#05a5ea"/>
      <stop offset=".54" stop-color="#02adef"/>
      <stop offset=".6" stop-color="#06aeef"/>
      <stop offset=".65" stop-color="#12b2f0"/>
      <stop offset=".71" stop-color="#27b9f1"/>
      <stop offset=".77" stop-color="#44c2f3"/>
      <stop offset=".83" stop-color="#6acef5"/>
      <stop offset=".89" stop-color="#98ddf8"/>
      <stop offset=".95" stop-color="#cdeffb"/>
      <stop offset="1" stop-color="#fff"/>
    </linearGradient>
    <linearGradient id="linear-gradient-39" x1="220.3" y1="200.52" x2="220.3" y2="32.16" gradientTransform="translate(358.23) rotate(-180) scale(1 -1)" gradientUnits="userSpaceOnUse">
      <stop offset="0" stop-color="#2a59be"/>
      <stop offset=".44" stop-color="#06a4ea"/>
      <stop offset=".51" stop-color="#04a6eb"/>
      <stop offset=".54" stop-color="#02adef"/>
      <stop offset=".6" stop-color="#06aeef"/>
      <stop offset=".65" stop-color="#12b2f0"/>
      <stop offset=".71" stop-color="#27b9f1"/>
      <stop offset=".77" stop-color="#44c2f3"/>
      <stop offset=".83" stop-color="#6acef5"/>
      <stop offset=".89" stop-color="#98ddf8"/>
      <stop offset=".95" stop-color="#cdeffb"/>
      <stop offset="1" stop-color="#fff"/>
    </linearGradient>
    <linearGradient id="linear-gradient-40" x1="222.6" y1="201.55" x2="222.6" y2="35.07" gradientTransform="translate(358.23) rotate(-180) scale(1 -1)" gradientUnits="userSpaceOnUse">
      <stop offset="0" stop-color="#2a59be"/>
      <stop offset=".44" stop-color="#06a6eb"/>
      <stop offset=".51" stop-color="#04a8ec"/>
      <stop offset=".54" stop-color="#03adef"/>
      <stop offset=".6" stop-color="#07aeef"/>
      <stop offset=".65" stop-color="#13b2f0"/>
      <stop offset=".71" stop-color="#28b9f1"/>
      <stop offset=".77" stop-color="#45c2f3"/>
      <stop offset=".83" stop-color="#6bcef5"/>
      <stop offset=".89" stop-color="#99ddf8"/>
      <stop offset=".95" stop-color="#ceeffb"/>
      <stop offset="1" stop-color="#fff"/>
    </linearGradient>
    <linearGradient id="linear-gradient-41" x1="224.91" y1="202.58" x2="224.91" y2="37.98" gradientTransform="translate(358.23) rotate(-180) scale(1 -1)" gradientUnits="userSpaceOnUse">
      <stop offset="0" stop-color="#2a59be"/>
      <stop offset=".44" stop-color="#05a7ec"/>
      <stop offset=".52" stop-color="#04a9ed"/>
      <stop offset=".54" stop-color="#03adef"/>
      <stop offset=".6" stop-color="#07aeef"/>
      <stop offset=".65" stop-color="#13b2f0"/>
      <stop offset=".71" stop-color="#28b9f1"/>
      <stop offset=".77" stop-color="#45c2f3"/>
      <stop offset=".83" stop-color="#6bcef5"/>
      <stop offset=".89" stop-color="#99ddf8"/>
      <stop offset=".95" stop-color="#ceeffb"/>
      <stop offset="1" stop-color="#fff"/>
    </linearGradient>
    <linearGradient id="linear-gradient-42" x1="227.21" y1="203.6" x2="227.21" y2="40.88" gradientTransform="translate(358.23) rotate(-180) scale(1 -1)" gradientUnits="userSpaceOnUse">
      <stop offset="0" stop-color="#2a59be"/>
      <stop offset=".44" stop-color="#04a9ed"/>
      <stop offset=".53" stop-color="#03abee"/>
      <stop offset=".54" stop-color="#03adef"/>
      <stop offset=".6" stop-color="#07aeef"/>
      <stop offset=".65" stop-color="#13b2f0"/>
      <stop offset=".71" stop-color="#28b9f1"/>
      <stop offset=".77" stop-color="#45c2f3"/>
      <stop offset=".83" stop-color="#6bcef5"/>
      <stop offset=".89" stop-color="#99ddf8"/>
      <stop offset=".95" stop-color="#ceeffb"/>
      <stop offset="1" stop-color="#fff"/>
    </linearGradient>
    <linearGradient id="linear-gradient-43" x1="229.52" y1="204.63" x2="229.52" y2="43.79" gradientTransform="translate(358.23) rotate(-180) scale(1 -1)" gradientUnits="userSpaceOnUse">
      <stop offset="0" stop-color="#2a59be"/>
      <stop offset=".44" stop-color="#03aaed"/>
      <stop offset=".54" stop-color="#03acee"/>
      <stop offset=".54" stop-color="#03adef"/>
      <stop offset=".6" stop-color="#07aeef"/>
      <stop offset=".65" stop-color="#13b2f0"/>
      <stop offset=".71" stop-color="#28b9f1"/>
      <stop offset=".77" stop-color="#45c2f3"/>
      <stop offset=".83" stop-color="#6bcef5"/>
      <stop offset=".89" stop-color="#99ddf8"/>
      <stop offset=".95" stop-color="#ceeffb"/>
      <stop offset="1" stop-color="#fff"/>
    </linearGradient>
    <linearGradient id="linear-gradient-44" x1="231.82" y1="205.66" x2="231.82" y2="46.7" gradientTransform="translate(358.23) rotate(-180) scale(1 -1)" gradientUnits="userSpaceOnUse">
      <stop offset="0" stop-color="#2a59be"/>
      <stop offset=".44" stop-color="#03acee"/>
      <stop offset=".54" stop-color="#03adef"/>
      <stop offset=".6" stop-color="#07aeef"/>
      <stop offset=".65" stop-color="#13b2f0"/>
      <stop offset=".71" stop-color="#28b9f1"/>
      <stop offset=".77" stop-color="#45c2f3"/>
      <stop offset=".83" stop-color="#6bcef5"/>
      <stop offset=".89" stop-color="#99ddf8"/>
      <stop offset=".95" stop-color="#ceeffb"/>
      <stop offset="1" stop-color="#fff"/>
    </linearGradient>
    <linearGradient id="linear-gradient-45" x1="234.13" y1="206.69" x2="234.13" y2="49.6" gradientTransform="translate(358.23) rotate(-180) scale(1 -1)" gradientUnits="userSpaceOnUse">
      <stop offset="0" stop-color="#2a59be"/>
      <stop offset=".44" stop-color="#02adef"/>
      <stop offset=".57" stop-color="#04adef"/>
      <stop offset=".64" stop-color="#0cb0ef"/>
      <stop offset=".71" stop-color="#1bb5f0"/>
      <stop offset=".76" stop-color="#2fbbf1"/>
      <stop offset=".81" stop-color="#4ac4f3"/>
      <stop offset=".86" stop-color="#6acef5"/>
      <stop offset=".91" stop-color="#90dbf8"/>
      <stop offset=".95" stop-color="#bde9fa"/>
      <stop offset=".99" stop-color="#eef9fd"/>
      <stop offset="1" stop-color="#fff"/>
    </linearGradient>
    <linearGradient id="linear-gradient-46" x1="334.07" y1="102.02" x2="92.65" y2="154.04" gradientTransform="translate(358.23) rotate(-180) scale(1 -1)" gradientUnits="userSpaceOnUse">
      <stop offset="0" stop-color="#02adef"/>
      <stop offset=".09" stop-color="#0cb0ef"/>
      <stop offset=".23" stop-color="#27b9f1"/>
      <stop offset=".43" stop-color="#54c7f4"/>
      <stop offset=".65" stop-color="#93dcf8"/>
      <stop offset=".91" stop-color="#e1f5fd"/>
      <stop offset="1" stop-color="#fff"/>
    </linearGradient>
    <radialGradient id="radial-gradient-2" cx="244.56" cy="153.24" fx="244.56" fy="153.24" r="46.52" gradientTransform="translate(358.23) rotate(-180) scale(1 -1)" gradientUnits="userSpaceOnUse">
      <stop offset="0" stop-color="#1c2538"/>
      <stop offset="1" stop-color="#2a59be"/>
    </radialGradient>
    <radialGradient id="radial-gradient-3" cx="545.23" cy="168.13" fx="545.23" fy="168.13" r="32.97" gradientTransform="translate(122.4) scale(.77 1)" gradientUnits="userSpaceOnUse">
      <stop offset="0" stop-color="#fff" stop-opacity="0"/>
      <stop offset=".23" stop-color="rgba(255, 255, 255, .01)" stop-opacity=".01"/>
      <stop offset=".39" stop-color="rgba(255, 255, 255, .05)" stop-opacity=".05"/>
      <stop offset=".53" stop-color="rgba(255, 255, 255, .11)" stop-opacity=".11"/>
      <stop offset=".66" stop-color="rgba(255, 255, 255, .19)" stop-opacity=".19"/>
      <stop offset=".78" stop-color="rgba(255, 255, 255, .3)" stop-opacity=".3"/>
      <stop offset=".89" stop-color="rgba(255, 255, 255, .44)" stop-opacity=".44"/>
      <stop offset="1" stop-color="rgba(255, 255, 255, .59)" stop-opacity=".59"/>
      <stop offset="1" stop-color="#fff" stop-opacity=".6"/>
    </radialGradient>
    <filter id="outer-glow-1" filterUnits="userSpaceOnUse">
      <feOffset dx="0" dy="0"/>
      <feGaussianBlur result="blur" stdDeviation="8.78"/>
      <feFlood flood-color="#a3ea2a" flood-opacity="1"/>
      <feComposite in2="blur" operator="in"/>
      <feComposite in="SourceGraphic"/>
    </filter>
    <linearGradient id="linear-gradient-47" x1="891.25" y1="94.62" x2="1036.82" y2="94.62" gradientUnits="userSpaceOnUse">
      <stop offset="0" stop-color="#a3ea2a"/>
      <stop offset=".51" stop-color="#74a517"/>
      <stop offset=".99" stop-color="#a3ea2a"/>
    </linearGradient>
    <linearGradient id="linear-gradient-48" x1="911.76" y1="46.45" x2="1263.21" y2="44.98" gradientUnits="userSpaceOnUse">
      <stop offset="0" stop-color="#9da8c4"/>
      <stop offset=".17" stop-color="#51586b"/>
      <stop offset=".36" stop-color="#828ca5"/>
    </linearGradient>
    <linearGradient id="linear-gradient-49" x1="966.83" y1="197.43" x2="958.01" y2="-199.63" gradientUnits="userSpaceOnUse">
      <stop offset="0" stop-color="#7c89a5"/>
      <stop offset=".57" stop-color="#4f5669"/>
      <stop offset="1" stop-color="#444b5c"/>
    </linearGradient>
    <linearGradient id="linear-gradient-50" x1="887.3" y1="135.07" x2="1199.92" y2="135.07" gradientUnits="userSpaceOnUse">
      <stop offset="0" stop-color="#9da8c4"/>
      <stop offset=".28" stop-color="#51586b"/>
      <stop offset=".53" stop-color="#828ca5"/>
    </linearGradient>
    <linearGradient id="linear-gradient-51" y1="90.94" x2="1180.33" y2="90.94" xlink:href="#linear-gradient-50"/>
    <linearGradient id="linear-gradient-52" x1="893.78" y1="88.26" x2="887.82" y2="171.65" gradientUnits="userSpaceOnUse">
      <stop offset="0" stop-color="#9da8c4"/>
      <stop offset=".57" stop-color="#4f5669"/>
      <stop offset="1" stop-color="#444b5c"/>
    </linearGradient>
    <linearGradient id="linear-gradient-53" x1="840.33" y1="112.87" x2="856.1" y2="204.01" xlink:href="#linear-gradient-52"/>
    <linearGradient id="linear-gradient-54" x1="1021.69" y1="38.38" x2="871.36" y2="280.22" xlink:href="#linear-gradient-52"/>
    <linearGradient id="linear-gradient-55" x1="-2257.14" y1="108.83" x2="-2233.42" y2="112.97" gradientTransform="translate(-1296.29 -85.92) rotate(-176.41) scale(1 -1)" gradientUnits="userSpaceOnUse">
      <stop offset="0" stop-color="#666"/>
      <stop offset=".57" stop-color="#4d4d4d"/>
      <stop offset="1" stop-color="#333"/>
    </linearGradient>
    <linearGradient id="linear-gradient-56" x1="-2269.01" y1="135.42" x2="-2209.43" y2="135.42" xlink:href="#linear-gradient-55"/>
    <linearGradient id="linear-gradient-57" x1="-2272.38" y1="158.49" x2="-2211.72" y2="158.49" gradientTransform="translate(-1296.29 -85.92) rotate(-176.41) scale(1 -1)" gradientUnits="userSpaceOnUse">
      <stop offset="0" stop-color="#666"/>
      <stop offset=".19" stop-color="#4d4d4d"/>
      <stop offset=".65" stop-color="#333"/>
    </linearGradient>
  </defs>
  <g id="arrow_styles_for_diagrams_etc" data-name="arrow styles for diagrams etc">
    <g id="arrow_styles_for_diagrams_etc-2" data-name="arrow styles for diagrams etc">
      <g id="arrow_styles_for_diagrams_etc-3" data-name="arrow styles for diagrams etc">
        <g id="arrow_styles_for_diagrams_etc-4" data-name="arrow styles for diagrams etc">
          <path d="M431.66,95.35l-26.28,15.11c-.78.44-1.75-.11-1.75-1.01v-7.79h-226.89c-2.33,0-4.22-1.89-4.22-4.22v-6.19c0-2.32,1.88-4.21,4.21-4.21h226.9v-7.79c0-.9.97-1.45,1.75-1.01l26.28,15.11c.78.44.78,1.56,0,2Z" style="fill: #eb0037; stroke-width: 0px;"/>
        </g>
      </g>
    </g>
  </g>
  <g id="Artwork_96" data-name="Artwork 96">
    <path d="M478.29,184.78s-14.67-1.85-26.5-18.29c-15.43-21.44-4.47-57.76-4.47-57.76-1.45,18.24,11.59,41.35,18.68,37.58,5.49-2.92,1.25-10.07-5.91-18.86-10.29-12.65-8.94-35.34-8.94-35.34,0,0,17.26,30.18,24.36,14.23,7.1-15.95-17.06-32.7-14.64-44.99,2.42-12.29,17.69-6.31,29.17-14.56,11.48-8.25.1-26.66.1-26.66,15.69,4.18,23.14,23.09,21.12,42.15-2.02,19.06,18.69,17.28,20.92-2.69,2.22-19.97,17.69-22.03,17.69-22.03-7.26,4.48-4.84,24.59,5.33,21.75,10.18-2.84,4.44-37.55,4.44-37.55,8.5,7.72,24.03,36.17,1.5,54.68-22.52,18.51,4.86,40.22,9.19,21.87,4.33-18.35,13.53-16.99,25.16-18.06,11.63-1.07,6.34-20.42,6.34-20.42,10.93,8.3,9.39,22.7-2.63,38.93s22.37,26.72,29.2-3.11c6.83-29.84,37.75-48.75,37.75-48.75,0,0-29.24,56-10.26,62.38,18.98,6.39,29.39-23.56,29.39-23.56-3.74,32-56.08,72.06-49.46,80.34,6.62,8.28,12.84.12,19.47-17.85s29.24-22.95,29.24-22.95c0,0-22.17,13.18-18.97,33.95,3.2,20.77,9.65,71.87-29.24,71.2l-158.02-45.61ZM623.05,87.29c6.97-12.64-3.62-34.4-3.62-34.4,0,0,1.57,7.82-1.56,19.51-3.12,11.69,5.17,14.89,5.17,14.89ZM536.96,36.29c8.1-3.45,13.62-5.15,13.21-10.61-.42-5.46-1-11.39-1-11.39,0,0-1.2,8.08-6.28,10.96s-5.92,11.04-5.92,11.04Z" style="fill: url(#radial-gradient); stroke-width: 0px;"/>
    <path d="M503.94,82.62c-7.41-10.4.54-31.73-.99-40.45,0,0-6.44,18.87-20.53,17.67-14.09-1.2,8.48,27.56,8.48,27.56l13.04-4.78Z" style="fill: #dead0a; stroke-width: 0px;"/>
    <path d="M546.94,84.87c6.3-13.65,20.41-15.45,20.41-25.45,0,0-9.47,2.45-15.38,8.17s-5.03,17.29-5.03,17.29Z" style="fill: #dead0a; stroke-width: 0px;"/>
    <path d="M643.4,75.32c-7.33,12.9-9.85,34.01-15.2,38.92,0,0,12.83-6.17,13.41-18.09.58-11.92,1.79-20.83,1.79-20.83Z" style="fill: #dead0a; stroke-width: 0px;"/>
  </g>
  <g id="arrow_styles_for_diagrams_etc-5" data-name="arrow styles for diagrams etc">
    <g id="arrow_styles_for_diagrams_etc-6" data-name="arrow styles for diagrams etc">
      <g id="arrow_styles_for_diagrams_etc-7" data-name="arrow styles for diagrams etc">
        <g id="arrow_styles_for_diagrams_etc-8" data-name="arrow styles for diagrams etc">
          <path d="M814,175.44c2.32,0,4.21-1.88,4.21-4.21v-6.19c0-2.33-1.89-4.22-4.22-4.22h-213.8v14.61h213.81Z" style="fill: #a3ea2a; stroke-width: 0px;"/>
        </g>
      </g>
    </g>
  </g>
  <polygon points="480.01 87.82 480.01 197.89 615.95 241.04 615.93 128.7 480.01 87.82" style="fill: #1c2538; stroke-width: 0px;"/>
  <polygon points="615.95 241.04 636.31 229.26 636.31 118.43 615.93 128.7 615.95 241.04" style="fill: #151c2b; stroke-width: 0px;"/>
  <polygon points="636.31 118.43 615.93 128.7 478.29 87.82 499.41 76.9 636.31 118.43" style="fill: #151c2b; stroke-width: 0px;"/>
  <g>
    <polygon points="535.55 173.35 564.23 182.15 564.17 200.65 535.47 191.74 535.55 173.35" style="fill: url(#linear-gradient); stroke-width: 0px;"/>
    <polygon points="517.71 144.62 546.35 153.27 546.28 171.7 517.61 162.93 517.71 144.62" style="fill: url(#linear-gradient-2); stroke-width: 0px;"/>
    <polygon points="549.98 154.36 578.62 163.01 578.58 181.57 549.91 172.81 549.98 154.36" style="fill: url(#linear-gradient-3); stroke-width: 0px;"/>
    <polygon points="535.76 126.72 564.37 135.23 564.31 153.73 535.68 145.11 535.76 126.72" style="fill: url(#linear-gradient-4); stroke-width: 0px;"/>
    <polygon points="503.53 117.14 532.14 125.65 532.05 144.02 503.42 135.4 503.53 117.14" style="fill: url(#linear-gradient-5); stroke-width: 0px;"/>
    <polygon points="485.44 134.87 514.09 143.52 513.99 161.82 485.32 153.06 485.44 134.87" style="fill: url(#linear-gradient-6); stroke-width: 0px;"/>
    <polygon points="503.25 163.44 531.93 172.24 531.84 190.61 503.14 181.7 503.25 163.44" style="fill: url(#linear-gradient-7); stroke-width: 0px;"/>
    <polygon points="614.5 192.56 614.51 173.86 616.19 174.37 616.18 193.08 614.5 192.56" style="fill: url(#linear-gradient-8); stroke-width: 0px;"/>
    <polygon points="600.22 145.89 616.21 150.65 616.2 169.35 600.19 164.54 600.22 145.89" style="fill: url(#linear-gradient-9); stroke-width: 0px;"/>
    <polygon points="600.16 193.17 616.18 198.09 616.17 216.8 600.13 211.82 600.16 193.17" style="fill: url(#linear-gradient-10); stroke-width: 0px;"/>
    <polygon points="567.99 136.31 596.6 144.81 596.57 163.44 567.94 154.82 567.99 136.31" style="fill: url(#linear-gradient-11); stroke-width: 0px;"/>
    <polygon points="481.69 151.95 479.19 151.18 479.32 133.02 481.82 133.77 481.69 151.95" style="fill: url(#linear-gradient-12); stroke-width: 0px;"/>
    <polygon points="567.86 183.26 596.53 192.06 596.5 210.69 567.8 201.78 567.86 183.26" style="fill: url(#linear-gradient-13); stroke-width: 0px;"/>
    <polygon points="582.24 164.11 610.88 172.76 610.87 191.45 582.2 182.68 582.24 164.11" style="fill: url(#linear-gradient-14); stroke-width: 0px;"/>
    <polygon points="578.51 210.08 578.47 228.64 549.74 219.58 549.8 201.13 578.51 210.08" style="fill: url(#linear-gradient-15); stroke-width: 0px;"/>
    <polygon points="610.85 220.15 610.83 238.84 582.1 229.78 582.14 211.21 610.85 220.15" style="fill: url(#linear-gradient-16); stroke-width: 0px;"/>
    <polygon points="616.17 221.81 616.16 240.52 614.47 239.98 614.48 221.28 616.17 221.81" style="fill: url(#linear-gradient-17); stroke-width: 0px;"/>
    <polygon points="546.17 200 546.1 218.43 517.37 209.38 517.47 191.06 546.17 200" style="fill: url(#linear-gradient-18); stroke-width: 0px;"/>
    <polygon points="481.5 179.86 481.37 198.03 478.86 197.24 478.99 179.08 481.5 179.86" style="fill: url(#linear-gradient-19); stroke-width: 0px;"/>
    <polygon points="499.79 134.31 479.35 128.15 479.48 109.99 499.91 116.06 499.79 134.31" style="fill: url(#linear-gradient-20); stroke-width: 0px;"/>
    <polygon points="614.53 146.38 614.54 127.68 616.22 128.17 616.21 146.88 614.53 146.38" style="fill: url(#linear-gradient-21); stroke-width: 0px;"/>
    <polygon points="513.84 189.93 513.74 208.23 485.01 199.18 485.13 180.99 513.84 189.93" style="fill: url(#linear-gradient-22); stroke-width: 0px;"/>
    <polygon points="485.63 108.15 485.75 89.96 514.33 98.33 514.23 116.63 485.63 108.15" style="fill: url(#linear-gradient-23); stroke-width: 0px;"/>
    <polygon points="479.51 106.33 479.63 88.17 482.13 88.9 482.01 107.07 479.51 106.33" style="fill: url(#linear-gradient-24); stroke-width: 0px;"/>
    <polygon points="479.15 156.05 499.62 162.33 499.51 180.57 479.02 174.21 479.15 156.05" style="fill: url(#linear-gradient-25); stroke-width: 0px;"/>
    <polygon points="582.3 136.82 582.34 118.25 610.92 126.62 610.91 145.31 582.3 136.82" style="fill: url(#linear-gradient-26); stroke-width: 0px;"/>
    <polygon points="517.85 117.71 517.95 99.39 546.53 107.76 546.46 126.19 517.85 117.71" style="fill: url(#linear-gradient-27); stroke-width: 0px;"/>
    <polygon points="550.08 127.27 550.14 108.82 578.72 117.19 578.68 135.75 550.08 127.27" style="fill: url(#linear-gradient-28); stroke-width: 0px;"/>
  </g>
  <polygon points="616.54 146.96 636.31 137.49 636.31 118.43 616.54 128.39 616.54 146.96" style="fill: url(#linear-gradient-29); opacity: .3; stroke-width: 0px;"/>
  <polygon points="616.54 169.39 636.31 159.92 636.31 140.85 616.54 150.82 616.54 169.39" style="fill: url(#linear-gradient-30); opacity: .3; stroke-width: 0px;"/>
  <polygon points="616.54 192.99 636.31 183.51 636.31 164.45 616.54 174.42 616.54 192.99" style="fill: url(#linear-gradient-31); opacity: .3; stroke-width: 0px;"/>
  <polygon points="616.54 216.58 636.31 207.11 636.31 188.05 616.54 198.02 616.54 216.58" style="fill: url(#linear-gradient-32); opacity: .3; stroke-width: 0px;"/>
  <polygon points="615.95 241.04 636.31 230.39 636.31 211.15 616.17 221.81 615.95 241.04" style="fill: url(#linear-gradient-33); opacity: .3; stroke-width: 0px;"/>
  <g id="Cloud_internet" data-name="Cloud + internet">
    <g>
      <g>
        <g>
          <path d="M72.73,90.42l4.47,1.04c2.54-29.32,27.13-52.32,57.11-52.32s54.92,23.33,57.16,52.94c.44-.01.88-.03,1.32-.03,20.07,0,36.52,15.51,38.03,35.19l5.66,1.32c15.39,0,27.87,12.48,27.87,27.87s-12.55,29.32-27.87,27.87c-52.45-4.95-144.45-15.1-163.74-17.61-20.89-2.71-38.14-17.07-38.14-38.14s17.07-38.14,38.14-38.14Z" style="fill: url(#linear-gradient-34); stroke-width: 0px;"/>
          <path d="M262.03,157.46c0,15.39-12.55,29.32-27.87,27.87-52.45-4.95-144.45-15.1-163.74-17.61-20.89-2.71-38.14-17.07-38.14-38.14s17.07-38.14,38.14-38.14l4.47,1.04c2.54-29.32,27.13-52.32,57.11-52.32s54.92,23.33,57.16,52.94c.44-.01.88-.03,1.32-.03,20.07,0,36.52,15.51,38.03,35.19l5.66,1.32c15.39,0,27.87,12.48,27.87,27.87Z" style="fill: url(#linear-gradient-35); stroke-width: 0px;"/>
          <path d="M259.72,158.48c0,15.39-12.55,29.32-27.87,27.87-52.45-4.95-144.45-15.1-163.74-17.61-20.89-2.71-38.14-17.07-38.14-38.14s17.07-38.14,38.14-38.14l4.47,1.04c2.54-29.32,27.13-52.32,57.11-52.32,30.18,0,54.92,23.33,57.16,52.94.44-.01.88-.03,1.32-.03,20.07,0,36.52,15.51,38.03,35.19l5.66,1.32c15.39,0,27.87,12.48,27.87,27.87Z" style="fill: url(#linear-gradient-36); stroke-width: 0px;"/>
          <path d="M257.42,159.51c0,15.39-12.55,29.32-27.87,27.87-52.45-4.95-144.45-15.1-163.74-17.61-20.89-2.71-38.14-17.07-38.14-38.14,0-21.06,17.07-38.14,38.14-38.14l4.47,1.04c2.54-29.32,27.13-52.32,57.11-52.32s54.92,23.33,57.16,52.94c.44-.01.88-.03,1.32-.03,20.07,0,36.52,15.51,38.03,35.19l5.66,1.32c15.39,0,27.87,12.48,27.87,27.87Z" style="fill: url(#linear-gradient-37); stroke-width: 0px;"/>
          <path d="M255.11,160.54c0,15.39-12.55,29.32-27.87,27.87-52.45-4.95-144.45-15.1-163.74-17.61-20.89-2.71-38.14-17.07-38.14-38.14s17.07-38.14,38.14-38.14l4.47,1.04c2.54-29.32,27.13-52.32,57.11-52.32,30.18,0,54.92,23.33,57.16,52.94.44-.01.88-.03,1.32-.03,20.07,0,36.52,15.51,38.03,35.19l5.66,1.32c15.39,0,27.87,12.48,27.87,27.87Z" style="fill: url(#linear-gradient-38); stroke-width: 0px;"/>
          <path d="M252.81,161.57c0,15.39-12.55,29.32-27.87,27.87-52.45-4.95-144.45-15.1-163.74-17.61-20.89-2.71-38.14-17.07-38.14-38.14,0-21.06,17.07-38.14,38.14-38.14l4.47,1.04c2.54-29.32,27.13-52.32,57.11-52.32,30.18,0,54.92,23.33,57.16,52.94.44-.01.88-.03,1.32-.03,20.07,0,36.52,15.51,38.03,35.19l5.66,1.32c15.39,0,27.87,12.48,27.87,27.87Z" style="fill: url(#linear-gradient-39); stroke-width: 0px;"/>
          <path d="M250.5,162.6c0,15.39-12.55,29.32-27.87,27.87-52.45-4.95-144.45-15.1-163.74-17.61-20.89-2.71-38.14-17.07-38.14-38.14,0-21.06,17.07-38.14,38.14-38.14l4.47,1.04c2.54-29.32,27.13-52.32,57.11-52.32,30.18,0,54.92,23.33,57.16,52.94.44-.01.88-.03,1.32-.03,20.07,0,36.52,15.51,38.03,35.19l5.66,1.32c15.39,0,27.87,12.48,27.87,27.87Z" style="fill: url(#linear-gradient-40); stroke-width: 0px;"/>
          <path d="M248.2,163.62c0,15.39-12.55,29.32-27.87,27.87-52.45-4.95-144.45-15.1-163.74-17.61-20.89-2.71-38.14-17.07-38.14-38.14,0-21.06,17.07-38.14,38.14-38.14l4.47,1.04c2.54-29.32,27.13-52.32,57.11-52.32,30.18,0,54.92,23.33,57.16,52.94.44-.01.88-.03,1.32-.03,20.07,0,36.52,15.51,38.03,35.19l5.66,1.32c15.39,0,27.87,12.48,27.87,27.87Z" style="fill: url(#linear-gradient-41); stroke-width: 0px;"/>
          <path d="M245.89,164.65c0,15.39-12.55,29.32-27.87,27.87-52.45-4.95-144.45-15.1-163.74-17.61-20.89-2.71-38.14-17.07-38.14-38.14,0-21.06,17.07-38.14,38.14-38.14l4.47,1.04c2.54-29.32,27.13-52.32,57.11-52.32,30.18,0,54.92,23.33,57.16,52.94.44-.01.88-.03,1.32-.03,20.07,0,36.52,15.51,38.03,35.19l5.66,1.32c15.39,0,27.87,12.48,27.87,27.87Z" style="fill: url(#linear-gradient-42); stroke-width: 0px;"/>
          <path d="M243.59,165.68c0,15.39-12.55,29.32-27.87,27.87-52.45-4.95-144.45-15.1-163.74-17.61-20.89-2.71-38.14-17.07-38.14-38.14,0-21.06,17.07-38.14,38.14-38.14l4.47,1.04c2.54-29.32,27.13-52.32,57.11-52.32,30.18,0,54.92,23.33,57.16,52.94.44-.01.88-.03,1.32-.03,20.07,0,36.52,15.51,38.03,35.19l5.66,1.32c15.39,0,27.87,12.48,27.87,27.87Z" style="fill: url(#linear-gradient-43); stroke-width: 0px;"/>
          <path d="M241.28,166.71c0,15.39-12.55,29.32-27.87,27.87-52.45-4.95-144.45-15.1-163.74-17.61-20.89-2.71-38.14-17.07-38.14-38.14,0-21.06,17.07-38.14,38.14-38.14l4.47,1.04c2.54-29.32,27.13-52.32,57.11-52.32,30.18,0,54.92,23.33,57.16,52.94.44-.01.88-.03,1.32-.03,20.07,0,36.52,15.51,38.03,35.19l5.66,1.32c15.39,0,27.87,12.48,27.87,27.87Z" style="fill: url(#linear-gradient-44); stroke-width: 0px;"/>
          <path d="M47.37,101.72l4.47,1.04c2.54-29.32,27.13-52.32,57.11-52.32,30.18,0,54.92,23.33,57.16,52.94.44-.01.88-.03,1.32-.03,20.07,0,36.52,15.51,38.03,35.19l5.66,1.32c15.39,0,27.87,12.48,27.87,27.87,0,15.39-12.55,29.32-27.87,27.87-52.45-4.95-144.45-15.1-163.74-17.61-20.89-2.71-38.14-17.07-38.14-38.14s17.07-38.14,38.14-38.14Z" style="fill: url(#linear-gradient-45); stroke-width: 0px;"/>
        </g>
        <path d="M47.37,101.72l4.47,1.04c2.54-29.32,27.13-52.32,57.11-52.32,30.18,0,54.92,23.33,57.16,52.94.44-.01.88-.03,1.32-.03,20.07,0,36.52,15.51,38.03,35.19l5.66,1.32c15.39,0,27.87,12.48,27.87,27.87,0,15.39-12.55,29.32-27.87,27.87-52.45-4.95-144.45-15.1-163.74-17.61-20.89-2.71-38.14-17.07-38.14-38.14s17.07-38.14,38.14-38.14Z" style="fill: url(#linear-gradient-46); stroke-width: 0px;"/>
      </g>
      <g id="Artwork_24" data-name="Artwork 24">
        <path d="M67.11,156.03c0,25.68,20.89,45.23,46.56,43.6,25.68-1.63,46.56-23.7,46.56-49.19,0-25.49-20.89-45.05-46.56-43.6-25.68,1.45-46.56,23.51-46.56,49.19ZM152.69,167.98l-13.21.81c1.13-4.79,1.8-9.94,1.93-15.28l14.83-.89c-.25,5.37-1.47,10.56-3.55,15.36ZM93.07,133.05c3.84-11.87,10.7-20.36,18.65-21.96v20.87s-18.65,1.09-18.65,1.09ZM111.73,135.84v15.58s-21.9,1.31-21.9,1.31c.15-5.56.88-10.86,2.11-15.73l19.79-1.16ZM134.28,130.64l-18.65,1.09v-20.86c7.95.69,14.81,8.39,18.65,19.78ZM135.41,134.45c1.24,4.71,1.97,9.91,2.11,15.42l-21.89,1.31v-15.57s19.78-1.16,19.78-1.16ZM139.38,134.21l13.13-.77c2.19,4.65,3.49,9.81,3.73,15.3l-14.84.89c-.13-5.46-.83-10.66-2.02-15.42ZM135.54,169.03l-19.92,1.22v-15.19s21.9-1.32,21.9-1.32c-.14,5.38-.83,10.54-1.99,15.29ZM134.43,172.97c-3.81,12.09-10.75,20.8-18.81,22.48v-21.32s18.81-1.16,18.81-1.16ZM92.92,175.53l18.81-1.16v21.33c-8.06-.66-15-8.52-18.81-20.17ZM91.81,171.71c-1.17-4.62-1.85-9.71-1.99-15.1l21.9-1.32v15.2s-19.92,1.22-19.92,1.22ZM87.86,171.95l-13.21.81c-2.08-4.57-3.31-9.64-3.55-15.03l14.83-.89c.13,5.35.8,10.44,1.93,15.11ZM71.1,153.84c.26-5.56,1.55-10.91,3.73-15.85l13.13-.77c-1.19,4.92-1.88,10.22-2.02,15.73l-14.84.89ZM99.95,113.8c-4.63,4.67-8.42,11.43-10.9,19.48l-12.19.71c5.14-9.07,13.31-16.31,23.09-20.19ZM150.49,129.7l-12.19.71c-2.48-7.72-6.27-14.03-10.9-18.17,9.78,2.75,17.95,9.03,23.09,17.46ZM127.51,192.53c4.66-4.78,8.46-11.66,10.91-19.81l12.3-.76c-5.1,9.18-13.33,16.56-23.21,20.56ZM76.62,176.54l12.3-.76c2.45,7.87,6.25,14.3,10.91,18.5-9.86-2.77-18.09-9.15-23.21-17.74Z" style="fill: url(#radial-gradient-2); stroke-width: 0px;"/>
      </g>
    </g>
  </g>
  <path d="M389.7,80.24h-112.59c-3.06,0-5.54-2.06-5.54-4.6v-22.94c0-2.54,2.48-4.6,5.54-4.6h112.59c3.06,0,5.54,2.06,5.54,4.6v22.94c0,2.54-2.48,4.6-5.54,4.6Z" style="fill: #223654; stroke-width: 0px;"/>
  <g>
    <path d="M280.47,64.84v-4.9h2.06v5.11c0,1.79.56,2.41,1.58,2.41s1.62-.62,1.62-2.41v-5.11h1.99v4.9c0,3.06-1.25,4.4-3.61,4.4s-3.65-1.33-3.65-4.4Z" style="fill: #fff; stroke-width: 0px;"/>
    <path d="M289.8,62.13h1.68l.15.88h.05c.58-.56,1.29-1.05,2.23-1.05,1.51,0,2.16,1.07,2.16,2.8v4.31h-2.06v-4.05c0-1-.27-1.31-.86-1.31-.52,0-.83.24-1.29.68v4.69h-2.06v-6.95Z" style="fill: #fff; stroke-width: 0px;"/>
    <path d="M297.38,62.13h2.05l.67,3.22c.12.69.2,1.36.31,2.07h.06c.12-.7.24-1.4.41-2.07l.76-3.22h1.79l.78,3.22c.17.69.29,1.36.44,2.07h.06c.12-.7.2-1.38.32-2.07l.66-3.22h1.9l-1.66,6.95h-2.41l-.64-2.78c-.13-.64-.24-1.28-.37-2.03h-.06c-.12.75-.22,1.39-.35,2.04l-.61,2.77h-2.36l-1.74-6.95Z" style="fill: #fff; stroke-width: 0px;"/>
    <path d="M308.49,67.15c0-1.46,1.17-2.26,3.91-2.55-.04-.61-.34-1-1.1-1-.58,0-1.17.25-1.84.63l-.73-1.35c.88-.54,1.88-.91,2.97-.91,1.78,0,2.76,1.02,2.76,3.14v3.97h-1.68l-.15-.71h-.05c-.58.51-1.24.88-2.02.88-1.27,0-2.07-.92-2.07-2.1ZM312.41,67.06v-1.21c-1.46.2-1.94.62-1.94,1.14,0,.45.31.67.8.67s.78-.23,1.14-.59Z" style="fill: #fff; stroke-width: 0px;"/>
    <path d="M316.33,62.13h1.68l.15.88h.05c.58-.56,1.29-1.05,2.23-1.05,1.51,0,2.16,1.07,2.16,2.8v4.31h-2.06v-4.05c0-1-.27-1.31-.86-1.31-.52,0-.83.24-1.29.68v4.69h-2.06v-6.95Z" style="fill: #fff; stroke-width: 0px;"/>
    <path d="M324.76,66.55v-2.81h-.95v-1.54l1.06-.08.24-1.85h1.7v1.85h1.67v1.62h-1.67v2.78c0,.79.36,1.1.9,1.1.23,0,.48-.07.66-.13l.33,1.5c-.37.12-.87.25-1.54.25-1.72,0-2.4-1.08-2.4-2.69Z" style="fill: #fff; stroke-width: 0px;"/>
    <path d="M329.33,65.6c0-2.25,1.61-3.65,3.28-3.65,1.98,0,2.96,1.44,2.96,3.34,0,.37-.05.74-.09.91h-4.16c.18,1.01.88,1.47,1.8,1.47.53,0,1-.16,1.5-.45l.68,1.24c-.71.49-1.64.78-2.47.78-1.98,0-3.51-1.34-3.51-3.64ZM333.8,64.84c0-.76-.33-1.31-1.16-1.31-.65,0-1.21.44-1.35,1.31h2.51Z" style="fill: #fff; stroke-width: 0px;"/>
    <path d="M336.76,65.6c0-2.27,1.42-3.65,2.88-3.65.77,0,1.23.29,1.7.73l-.07-1.05v-2.37h2.06v9.81h-1.68l-.15-.69h-.05c-.49.49-1.18.86-1.85.86-1.73,0-2.84-1.37-2.84-3.64ZM341.28,66.94v-2.85c-.36-.33-.77-.44-1.15-.44-.67,0-1.25.62-1.25,1.94s.47,1.98,1.27,1.98c.44,0,.79-.17,1.13-.62Z" style="fill: #fff; stroke-width: 0px;"/>
    <path d="M350.18,61.68h-2.51v-1.73h7.09v1.73h-2.51v7.4h-2.06v-7.4Z" style="fill: #fff; stroke-width: 0px;"/>
    <path d="M355.56,62.13h1.68l.15,1.21h.05c.51-.93,1.27-1.38,1.97-1.38.4,0,.63.05.83.14l-.34,1.78c-.25-.06-.45-.11-.75-.11-.52,0-1.16.34-1.53,1.29v4.03h-2.06v-6.95Z" style="fill: #fff; stroke-width: 0px;"/>
    <path d="M360.56,67.15c0-1.46,1.17-2.26,3.91-2.55-.04-.61-.34-1-1.1-1-.58,0-1.17.25-1.84.63l-.73-1.35c.88-.54,1.88-.91,2.97-.91,1.78,0,2.76,1.02,2.76,3.14v3.97h-1.68l-.15-.71h-.05c-.58.51-1.24.88-2.02.88-1.27,0-2.07-.92-2.07-2.1ZM364.47,67.06v-1.21c-1.46.2-1.94.62-1.94,1.14,0,.45.31.67.8.67s.78-.23,1.14-.59Z" style="fill: #fff; stroke-width: 0px;"/>
    <path d="M367.83,62.2l1.04-.08h7.62v1.62h-8.66v-1.54ZM368.75,61.81c0-1.42.74-2.58,2.63-2.58.59,0,1.12.12,1.44.25l-.37,1.52c-.22-.1-.44-.15-.82-.15-.47,0-.82.3-.82.95v7.27h-2.06v-7.26ZM373.18,61.77c0-1.47.68-2.67,2.56-2.67.58,0,1.08.13,1.39.25l-.37,1.52c-.23-.09-.49-.15-.72-.15-.5,0-.79.28-.79,1v7.37h-2.06v-7.31Z" style="fill: #fff; stroke-width: 0px;"/>
    <path d="M377.57,60.03c0-.63.5-1.08,1.19-1.08s1.19.44,1.19,1.08-.5,1.08-1.19,1.08-1.19-.45-1.19-1.08ZM377.73,62.13h2.06v6.95h-2.06v-6.95Z" style="fill: #fff; stroke-width: 0px;"/>
    <path d="M381.33,65.6c0-2.31,1.7-3.65,3.62-3.65.86,0,1.51.3,2.03.75l-.97,1.32c-.33-.28-.61-.41-.94-.41-.99,0-1.63.78-1.63,1.98s.66,1.98,1.56,1.98c.46,0,.89-.23,1.25-.51l.81,1.35c-.68.6-1.54.83-2.29.83-1.94,0-3.44-1.33-3.44-3.64Z" style="fill: #fff; stroke-width: 0px;"/>
  </g>
  <g id="arrow_styles_for_diagrams_etc-9" data-name="arrow styles for diagrams etc">
    <g id="arrow_styles_for_diagrams_etc-10" data-name="arrow styles for diagrams etc">
      <g id="arrow_styles_for_diagrams_etc-11" data-name="arrow styles for diagrams etc">
        <g id="arrow_styles_for_diagrams_etc-12" data-name="arrow styles for diagrams etc">
          <path d="M233.12,167.13l26.28-15.11c.78-.44,1.75.11,1.75,1.01v7.79h283.1c2.33,0,4.22,1.89,4.22,4.22v6.19c0,2.32-1.88,4.21-4.21,4.21h-283.11v7.79c0,.9-.97,1.45-1.75,1.01l-26.28-15.11c-.78-.44-.78-1.56,0-2Z" style="fill: #a3ea2a; stroke-width: 0px;"/>
        </g>
      </g>
    </g>
  </g>
  <path d="M389.7,154.61h-112.59c-3.06,0-5.54-2.06-5.54-4.6v-22.94c0-2.54,2.48-4.6,5.54-4.6h112.59c3.06,0,5.54,2.06,5.54,4.6v22.94c0,2.54-2.48,4.6-5.54,4.6Z" style="fill: #223654; stroke-width: 0px;"/>
  <g>
    <path d="M289.4,134.32h2.47l2.87,9.13h-2.18l-1.19-4.62c-.25-.91-.5-1.99-.74-2.95h-.06c-.22.96-.46,2.03-.72,2.95l-1.2,4.62h-2.11l2.87-9.13ZM288.42,139.67h4.39v1.6h-4.39v-1.6Z" style="fill: #fff; stroke-width: 0px;"/>
    <path d="M295.58,141.29v-7.65h2.06v7.74c0,.44.21.58.37.58.08,0,.13,0,.25-.03l.25,1.52c-.23.1-.57.17-1.03.17-1.41,0-1.9-.92-1.9-2.33Z" style="fill: #fff; stroke-width: 0px;"/>
    <path d="M299.72,141.29v-7.65h2.06v7.74c0,.44.21.58.37.58.08,0,.13,0,.25-.03l.25,1.52c-.23.1-.57.17-1.03.17-1.41,0-1.9-.92-1.9-2.33Z" style="fill: #fff; stroke-width: 0px;"/>
    <path d="M303.46,139.98c0-2.31,1.63-3.65,3.38-3.65s3.38,1.33,3.38,3.65-1.63,3.64-3.38,3.64-3.38-1.33-3.38-3.64ZM308.12,139.98c0-1.2-.42-1.98-1.27-1.98s-1.28.78-1.28,1.98.42,1.98,1.28,1.98,1.27-.78,1.27-1.98Z" style="fill: #fff; stroke-width: 0px;"/>
    <path d="M311.09,136.5h2.05l.67,3.22c.12.69.2,1.36.31,2.07h.06c.12-.7.24-1.4.41-2.07l.76-3.22h1.79l.78,3.22c.17.69.29,1.36.44,2.07h.06c.12-.7.2-1.38.32-2.07l.66-3.22h1.9l-1.66,6.95h-2.41l-.64-2.78c-.13-.64-.24-1.28-.37-2.03h-.06c-.12.75-.22,1.39-.35,2.04l-.61,2.77h-2.36l-1.74-6.95Z" style="fill: #fff; stroke-width: 0px;"/>
    <path d="M322.15,139.98c0-2.25,1.61-3.65,3.28-3.65,1.98,0,2.96,1.44,2.96,3.33,0,.37-.05.74-.09.91h-4.16c.18,1.01.88,1.47,1.8,1.47.53,0,1-.16,1.5-.45l.68,1.24c-.71.49-1.64.78-2.47.78-1.98,0-3.51-1.34-3.51-3.64ZM326.63,139.21c0-.76-.33-1.31-1.16-1.31-.65,0-1.21.44-1.35,1.31h2.51Z" style="fill: #fff; stroke-width: 0px;"/>
    <path d="M329.59,139.98c0-2.27,1.42-3.65,2.88-3.65.77,0,1.23.29,1.7.72l-.07-1.05v-2.37h2.06v9.81h-1.68l-.15-.69h-.05c-.49.49-1.18.86-1.85.86-1.73,0-2.84-1.37-2.84-3.64ZM334.1,141.31v-2.85c-.36-.33-.77-.44-1.15-.44-.67,0-1.25.62-1.25,1.94s.47,1.98,1.27,1.98c.44,0,.79-.17,1.13-.62Z" style="fill: #fff; stroke-width: 0px;"/>
    <path d="M343.01,136.05h-2.51v-1.73h7.09v1.73h-2.51v7.4h-2.06v-7.4Z" style="fill: #fff; stroke-width: 0px;"/>
    <path d="M348.38,136.5h1.68l.15,1.21h.05c.51-.93,1.27-1.38,1.97-1.38.4,0,.63.05.83.14l-.34,1.78c-.25-.06-.45-.11-.75-.11-.52,0-1.16.34-1.53,1.29v4.03h-2.06v-6.95Z" style="fill: #fff; stroke-width: 0px;"/>
    <path d="M353.39,141.52c0-1.46,1.17-2.26,3.91-2.55-.04-.61-.34-1-1.1-1-.58,0-1.17.25-1.84.63l-.73-1.35c.88-.54,1.88-.91,2.97-.91,1.78,0,2.76,1.01,2.76,3.14v3.97h-1.68l-.15-.71h-.05c-.58.51-1.24.88-2.02.88-1.27,0-2.07-.92-2.07-2.09ZM357.3,141.43v-1.21c-1.46.2-1.94.62-1.94,1.14,0,.45.31.67.8.67s.78-.23,1.14-.59Z" style="fill: #fff; stroke-width: 0px;"/>
    <path d="M360.65,136.58l1.04-.08h7.62v1.62h-8.66v-1.54ZM361.58,136.19c0-1.42.74-2.58,2.63-2.58.59,0,1.12.12,1.44.25l-.37,1.52c-.22-.1-.44-.16-.82-.16-.47,0-.82.3-.82.95v7.27h-2.06v-7.26ZM366.01,136.14c0-1.47.68-2.67,2.56-2.67.58,0,1.08.13,1.39.25l-.37,1.52c-.23-.09-.49-.15-.72-.15-.5,0-.79.28-.79,1v7.37h-2.06v-7.31Z" style="fill: #fff; stroke-width: 0px;"/>
    <path d="M370.4,134.41c0-.63.5-1.08,1.19-1.08s1.19.44,1.19,1.08-.5,1.08-1.19,1.08-1.19-.45-1.19-1.08ZM370.56,136.5h2.06v6.95h-2.06v-6.95Z" style="fill: #fff; stroke-width: 0px;"/>
    <path d="M374.16,139.98c0-2.31,1.7-3.65,3.62-3.65.86,0,1.51.3,2.03.75l-.97,1.32c-.33-.28-.61-.41-.94-.41-.99,0-1.63.78-1.63,1.98s.66,1.98,1.56,1.98c.46,0,.89-.23,1.25-.51l.81,1.35c-.68.6-1.54.83-2.29.83-1.94,0-3.44-1.33-3.44-3.64Z" style="fill: #fff; stroke-width: 0px;"/>
  </g>
  <ellipse cx="542.54" cy="168.13" rx="25.41" ry="32.97" style="fill: url(#radial-gradient-3); filter: url(#outer-glow-1); stroke-width: 0px;"/>
  <g>
    <g id="Database">
      <g id="Database-2" data-name="Database">
        <g>
          <path d="M887.61,106.52s1.8-1.35,4.49-1.35l-.45,4.04-4.04-2.69Z" style="fill: #2e3d5b; stroke-width: 0px;"/>
          <path d="M887.39,61.46s1.98-1.21,4.67-1.21l-.45,4.04-4.22-2.83Z" style="fill: #2e3d5b; stroke-width: 0px;"/>
          <polygon points="891.25 56.09 891.25 116.86 970.1 136.63 1036.82 114.39 1035.58 52.61 891.25 56.09" style="fill: url(#linear-gradient-47); stroke-width: 0px;"/>
          <path d="M886.57,18.59l.69,35.44c.03,1.53.93,2.9,2.33,3.53,8.63,3.93,40.94,17.2,82.33,16.58,36.79-.56,59.47-13.11,65.84-17.15,1.15-.73,1.84-2.01,1.82-3.38l-.38-34.72-152.62-.3Z" style="fill: url(#linear-gradient-48); stroke-width: 0px;"/>
          <path d="M1039.15,18.59c0,8.74-34.13,15.82-76.24,15.82s-76.35-7.08-76.35-15.82,34.25-15.82,76.35-15.82,76.24,7.08,76.24,15.82Z" style="fill: url(#linear-gradient-49); stroke-width: 0px;"/>
          <path d="M997.66,51.08c0,2.74-2.22,4.96-4.96,4.96-1.38,0-2.62-.56-3.52-1.47.73.43,1.58.67,2.49.67,2.74,0,4.96-2.22,4.96-4.96,0-1.36-.55-2.6-1.44-3.49,1.48.86,2.47,2.46,2.47,4.29Z" style="fill: #dbdcdd; stroke-width: 0px;"/>
          <path d="M996.63,50.29c0,2.74-2.22,4.96-4.96,4.96-.91,0-1.76-.24-2.49-.67-.89-.9-1.44-2.13-1.44-3.49,0-2.74,2.22-4.96,4.96-4.96.91,0,1.76.24,2.49.67.89.9,1.44,2.13,1.44,3.49Z" style="fill: #fff; stroke-width: 0px;"/>
          <circle cx="992.7" cy="140.88" r="4.96" style="fill: #fff; stroke-width: 0px;"/>
          <path d="M887.86,106.51s3.64,2.68,8.1,4.17c7.41,2.47,32.12,11.35,70.43,12.36,46.95,1.24,70.74-16.32,70.74-16.32l2.46-.38-31.19,29.06-103.79-9.88-16.06-13.59-1.24-2.47s-.13-3.4.55-2.93Z" style="fill: #2e3d5b; stroke-width: 0px;"/>
          <path d="M887.3,108.54v29.47c0,5.09,3.09,9.66,7.82,11.57,13.14,5.29,41.7,14.74,76.79,14.21,30.41-.46,51.17-9.12,61.06-14.39,4.07-2.17,6.62-6.4,6.62-11.01v-32.06c-13.24,12.51-53.71,20.6-74.31,19.13-17.66-1.47-44.14-1.47-77.99-16.92Z" style="fill: url(#linear-gradient-50); stroke-width: 0px;"/>
          <circle cx="992.7" cy="141.08" r="4.96" style="fill: #fff; stroke-width: 0px;"/>
          <path d="M887.41,61.45s4.09,2.68,8.55,4.17c7.41,2.47,32.12,11.35,70.43,12.36,46.95,1.24,69.55-15.59,69.55-15.59l2.46,2.32-30,25.62-103.79-9.88-16.06-13.59-1.24-2.47s-.15-2.76.1-2.93Z" style="fill: #2e3d5b; stroke-width: 0px;"/>
          <path d="M1039.59,106.33s.36-1.65-2.98-2.34v.54l.06,2.65,1.33-.29,1.59-.54Z" style="fill: #2e3d5b; stroke-width: 0px;"/>
          <path d="M1039.59,62.29s-.54-2.73-3.88-3.43v.74l.08,6.12,1.5-.25,2.29-3.17Z" style="fill: #2e3d5b; stroke-width: 0px;"/>
          <path d="M887.3,64.37v37.59s36.05,18.39,84.61,17.66c43.05-.65,66.78-17.73,67.66-18.37.02-.01.03-.03.03-.05v-38.9c0-.05-.06-.08-.1-.04-13.34,12.45-53.66,20.5-74.21,19.04-17.66-1.47-44.14-1.47-77.99-16.92Z" style="fill: url(#linear-gradient-51); stroke-width: 0px;"/>
          <circle cx="992.7" cy="96.6" r="4.96" style="fill: #fff; stroke-width: 0px;"/>
          <path d="M997.66,96.6c0,2.74-2.22,4.96-4.96,4.96-1.38,0-2.62-.56-3.52-1.47.73.43,1.58.67,2.49.67,2.74,0,4.96-2.22,4.96-4.96,0-1.36-.55-2.6-1.44-3.49,1.48.86,2.47,2.46,2.47,4.29Z" style="fill: #dbdcdd; stroke-width: 0px;"/>
          <path d="M997.66,141.04c0,2.74-2.22,4.96-4.96,4.96-1.38,0-2.62-.56-3.52-1.47.73.43,1.58.67,2.49.67,2.74,0,4.96-2.22,4.96-4.96,0-1.36-.55-2.6-1.44-3.49,1.48.86,2.47,2.46,2.47,4.29Z" style="fill: #dbdcdd; stroke-width: 0px;"/>
          <path d="M888.9,26.03v10.92s33.14,10.09,54.84,7.38c0,0-44.57-9.46-54.84-18.3" style="fill: #fff; opacity: .29; stroke-width: 0px;"/>
          <path d="M957.31,30.76s73.35-2.58,74.66-12.14c1.31-9.56-52.96-12.28-52.96-12.28,0,0,48.7,8.27,40.63,12.28-8.07,4-62.34,12.14-62.34,12.14Z" style="fill: #fff; opacity: .11; stroke-width: 0px;"/>
        </g>
      </g>
    </g>
    <g id="Server_-_small" data-name="Server - small">
      <g>
        <g>
          <polygon points="813.31 134.3 892.98 99.37 967.6 135.11 890.17 168.24 813.31 134.3" style="fill: url(#linear-gradient-52); stroke-width: 0px;"/>
          <polyline points="890.94 167.09 891.58 244.71 816.11 211.17 813.31 134.3" style="fill: url(#linear-gradient-53); stroke-width: 0px;"/>
          <polygon points="890.88 167.15 891.58 244.71 966.35 209.07 967.75 135 890.88 167.15" style="fill: url(#linear-gradient-54); stroke-width: 0px;"/>
          <path d="M902.05,188.48l56.19-25.78c.72-.33,1.2-1.03,1.25-1.82l.92-14.67c.1-1.61-1.54-2.75-3.01-2.09l-56.99,25.36c-.77.34-1.27,1.1-1.27,1.94l-.12,15.08c-.01,1.57,1.61,2.62,3.04,1.97Z" style="fill: url(#linear-gradient-55); stroke-width: 0px;"/>
          <path d="M899.22,187.45c.49,1.01,1.72,1.53,2.84,1.03l56.19-25.78c.72-.32,1.19-1.02,1.24-1.81l.92-14.67c.08-1.35-1.06-2.38-2.3-2.29.15.31.23.68.2,1.07l-.92,14.67c-.05.79-.53,1.49-1.24,1.81l-56.19,25.78c-.25.1-.49.18-.74.19Z" style="fill: #1a1a1a; stroke-width: 0px;"/>
          <path d="M902.8,211.73l56.19-25.78c.72-.33,1.2-1.03,1.25-1.82l.92-14.67c.1-1.61-1.54-2.75-3.01-2.09l-56.99,25.36c-.77.34-1.27,1.1-1.27,1.94l-.12,15.08c-.01,1.57,1.61,2.62,3.04,1.97Z" style="fill: url(#linear-gradient-56); stroke-width: 0px;"/>
          <path d="M899.96,210.7c.49,1.01,1.72,1.53,2.84,1.03l56.19-25.78c.72-.32,1.19-1.02,1.24-1.81l.92-14.67c.08-1.35-1.06-2.38-2.3-2.29.15.31.23.68.2,1.07l-.92,14.67c-.05.79-.53,1.49-1.24,1.81l-56.19,25.78c-.25.1-.49.18-.74.19Z" style="fill: #1a1a1a; stroke-width: 0px;"/>
          <path d="M903.65,234.89l57.27-25.71c.72-.33,1.2-1.03,1.25-1.82l.92-14.67c.1-1.61-1.54-2.75-3.01-2.09l-58.07,25.29c-.77.34-1.27,1.1-1.27,1.94l-.12,15.08c-.01,1.57,1.61,2.62,3.04,1.97Z" style="fill: url(#linear-gradient-57); stroke-width: 0px;"/>
          <path d="M900.81,233.87c.49,1.01,1.72,1.53,2.84,1.03l57.27-25.71c.72-.32,1.19-1.02,1.24-1.81l.92-14.67c.08-1.35-1.06-2.38-2.3-2.29.15.31.23.68.2,1.07l-.92,14.67c-.05.79-.53,1.49-1.24,1.81l-57.27,25.71c-.25.1-.49.18-.74.19Z" style="fill: #1a1a1a; stroke-width: 0px;"/>
          <circle cx="905.19" cy="172.87" r="1.7" style="fill: #a3ea2a; stroke-width: 0px;"/>
          <circle cx="905.4" cy="179.51" r="1.7" style="fill: #a3ea2a; stroke-width: 0px;"/>
          <circle cx="913.28" cy="169.41" r="1.7" style="fill: #f2f2f2; stroke-width: 0px;"/>
          <circle cx="914.26" cy="175.66" r="1.7" style="fill: #a3ea2a; stroke-width: 0px;"/>
          <circle cx="921.37" cy="165.94" r="1.7" style="fill: #a3ea2a; stroke-width: 0px;"/>
          <circle cx="921.58" cy="172.58" r="1.7" style="fill: #a3ea2a; stroke-width: 0px;"/>
          <circle cx="929.46" cy="162.09" r="1.7" style="fill: #eb0037; stroke-width: 0px;"/>
          <circle cx="929.67" cy="168.72" r="1.7" style="fill: #a3ea2a; stroke-width: 0px;"/>
          <circle cx="937.55" cy="158.62" r="1.7" style="fill: #a3ea2a; stroke-width: 0px;"/>
          <circle cx="937.76" cy="165.26" r="1.7" style="fill: #1a1a1a; stroke-width: 0px;"/>
          <circle cx="945.64" cy="154.77" r="1.7" style="fill: #a3ea2a; stroke-width: 0px;"/>
          <circle cx="945.85" cy="161.79" r="1.7" style="fill: #a3ea2a; stroke-width: 0px;"/>
          <circle cx="953.34" cy="150.92" r="1.7" style="fill: #a3ea2a; stroke-width: 0px;"/>
          <circle cx="953.55" cy="157.55" r="1.7" style="fill: #a3ea2a; stroke-width: 0px;"/>
          <circle cx="905.96" cy="195.6" r="1.7" style="fill: #f2f2f2; stroke-width: 0px;"/>
          <circle cx="906.17" cy="202.24" r="1.7" style="fill: #eb0037; stroke-width: 0px;"/>
          <circle cx="914.05" cy="192.14" r="1.7" style="fill: #a3ea2a; stroke-width: 0px;"/>
          <circle cx="915.03" cy="198.39" r="1.7" style="fill: #eb0037; stroke-width: 0px;"/>
          <circle cx="922.14" cy="188.67" r="1.7" style="fill: #a3ea2a; stroke-width: 0px;"/>
          <circle cx="922.35" cy="195.3" r="1.7" style="fill: #eb0037; stroke-width: 0px;"/>
          <circle cx="930.23" cy="184.82" r="1.7" style="fill: #a3ea2a; stroke-width: 0px;"/>
          <circle cx="930.44" cy="191.45" r="1.7" style="fill: #eb0037; stroke-width: 0px;"/>
          <circle cx="938.32" cy="181.35" r="1.7" style="fill: #a3ea2a; stroke-width: 0px;"/>
          <circle cx="938.53" cy="187.99" r="1.7" style="fill: #eb0037; stroke-width: 0px;"/>
          <circle cx="946.41" cy="177.5" r="1.7" style="fill: #1a1a1a; stroke-width: 0px;"/>
          <circle cx="946.62" cy="184.52" r="1.7" style="fill: #eb0037; stroke-width: 0px;"/>
          <circle cx="954.11" cy="173.64" r="1.7" style="fill: #a3ea2a; stroke-width: 0px;"/>
          <circle cx="954.32" cy="180.28" r="1.7" style="fill: #eb0037; stroke-width: 0px;"/>
          <circle cx="907.88" cy="218.72" r="1.7" style="fill: #a3ea2a; stroke-width: 0px;"/>
          <circle cx="908.1" cy="225.35" r="1.7" style="fill: #a3ea2a; stroke-width: 0px;"/>
          <circle cx="915.97" cy="215.25" r="1.7" style="fill: #a3ea2a; stroke-width: 0px;"/>
          <circle cx="916.96" cy="221.5" r="1.7" style="fill: #a3ea2a; stroke-width: 0px;"/>
          <circle cx="924.06" cy="211.78" r="1.7" style="fill: #1a1a1a; stroke-width: 0px;"/>
          <circle cx="924.28" cy="218.42" r="1.7" style="fill: #a3ea2a; stroke-width: 0px;"/>
          <circle cx="932.15" cy="207.93" r="1.7" style="fill: #a3ea2a; stroke-width: 0px;"/>
          <circle cx="932.37" cy="214.57" r="1.7" style="fill: #a3ea2a; stroke-width: 0px;"/>
          <circle cx="940.24" cy="204.46" r="1.7" style="fill: #eb0037; stroke-width: 0px;"/>
          <circle cx="940.46" cy="211.1" r="1.7" style="fill: #a3ea2a; stroke-width: 0px;"/>
          <circle cx="948.33" cy="200.61" r="1.7" style="fill: #a3ea2a; stroke-width: 0px;"/>
          <circle cx="948.55" cy="207.63" r="1.7" style="fill: #1a1a1a; stroke-width: 0px;"/>
          <circle cx="956.04" cy="196.76" r="1.7" style="fill: #a3ea2a; stroke-width: 0px;"/>
          <circle cx="956.25" cy="203.39" r="1.7" style="fill: #a3ea2a; stroke-width: 0px;"/>
          <polygon points="817.64 139.54 821.11 208.41 886.69 238.42 886.69 168.55 817.64 139.54" style="fill: #272728; stroke-width: 0px;"/>
          <polygon points="817.64 139.54 820.36 140.56 823.26 207.77 821.11 208.41 817.64 139.54" style="fill: #1a1a1a; stroke-width: 0px;"/>
          <polygon points="823.26 207.77 886.69 237.03 886.69 238.42 821.11 208.41 823.26 207.77" style="fill: #1a1a1a; stroke-width: 0px;"/>
        </g>
        <line x1="829.69" y1="206.63" x2="828.95" y2="179.72" style="fill: #eb0037; stroke: #000; stroke-linecap: round; stroke-linejoin: round; stroke-width: 1.84px;"/>
        <line x1="833.74" y1="208.48" x2="833.01" y2="181.56" style="fill: #eb0037; stroke: #000; stroke-linecap: round; stroke-linejoin: round; stroke-width: 1.84px;"/>
        <line x1="837.8" y1="210.69" x2="837.06" y2="183.78" style="fill: #eb0037; stroke: #000; stroke-linecap: round; stroke-linejoin: round; stroke-width: 1.84px;"/>
        <line x1="841.85" y1="212.9" x2="841.12" y2="185.99" style="fill: #eb0037; stroke: #000; stroke-linecap: round; stroke-linejoin: round; stroke-width: 1.84px;"/>
        <line x1="845.91" y1="214.74" x2="845.17" y2="187.83" style="fill: #eb0037; stroke: #000; stroke-linecap: round; stroke-linejoin: round; stroke-width: 1.84px;"/>
        <line x1="849.96" y1="216.59" x2="849.23" y2="189.67" style="fill: #eb0037; stroke: #000; stroke-linecap: round; stroke-linejoin: round; stroke-width: 1.84px;"/>
        <line x1="855.04" y1="218.46" x2="854.3" y2="191.55" style="fill: #eb0037; stroke: #000; stroke-linecap: round; stroke-linejoin: round; stroke-width: 1.84px;"/>
        <line x1="859.1" y1="220.31" x2="858.36" y2="193.4" style="fill: #eb0037; stroke: #000; stroke-linecap: round; stroke-linejoin: round; stroke-width: 1.84px;"/>
        <line x1="863.15" y1="222.52" x2="862.42" y2="195.61" style="fill: #eb0037; stroke: #000; stroke-linecap: round; stroke-linejoin: round; stroke-width: 1.84px;"/>
        <line x1="867.21" y1="224.73" x2="866.47" y2="197.82" style="fill: #eb0037; stroke: #000; stroke-linecap: round; stroke-linejoin: round; stroke-width: 1.84px;"/>
        <line x1="871.26" y1="226.57" x2="870.53" y2="199.66" style="fill: #eb0037; stroke: #000; stroke-linecap: round; stroke-linejoin: round; stroke-width: 1.84px;"/>
        <line x1="875.32" y1="228.42" x2="874.58" y2="201.51" style="fill: #eb0037; stroke: #000; stroke-linecap: round; stroke-linejoin: round; stroke-width: 1.84px;"/>
        <polygon points="826.3 133.16 890.53 163.59 954.76 134.85 890.53 160.21 826.3 133.16" style="fill: #97afbf; opacity: .25; stroke-width: 0px;"/>
        <polygon points="822.92 133.16 892.22 102.74 954.76 133.16 892.22 104.43 822.92 133.16" style="fill: #97afbf; opacity: .25; stroke-width: 0px;"/>
      </g>
    </g>
    <g id="Router">
      <g>
        <path d="M1100.13,193.63l11.76-48.56,5.07-13.52,10.14-38.87h3.38l-10.14,40.56-1.69,13.52-10.14,49s-3.25-.89-8.38-2.13Z" style="fill: #d4d8df; stroke-width: 0px;"/>
        <path d="M1116.97,131.55s1.68,1.82,3.38,1.69l-1.47,11.33s-2.77.61-6.07-1.92l4.15-11.1Z" style="fill: #acb1b7; stroke-width: 0px;"/>
        <polygon points="1104.39 189.27 1115.03 148.18 1106.98 190.14 1104.39 189.27" style="fill: #fff; stroke-width: 0px;"/>
        <polygon points="1037 168.03 1031.65 123.84 1031.65 112.02 1028.27 83.29 1029.96 83.29 1035.03 112.02 1038.41 123.84 1044.21 172.04 1037 168.03" style="fill: #d4d8df; stroke-width: 0px;"/>
        <path d="M1035.03,112.02s-.55.68-3.38,0v11.83s2.63,1.92,6.76,0l-3.38-11.83Z" style="fill: #acb1b7; stroke-width: 0px;"/>
        <polygon points="1034.93 126.4 1039.31 167.32 1041.43 167.75 1034.93 126.4" style="fill: #fff; stroke-width: 0px;"/>
        <path d="M974.89,201.78l83.55,44.63c2.45,1.18,5.32,1.07,7.68-.28l47.58-29.09c1.7-.98,1.44-3.52-.43-4.13l-82.03-29.59c-1.75-.61-3.64-.64-5.41-.09l-50.74,15.05c-1.6.55-1.73,2.75-.21,3.49Z" style="fill: #434b56; stroke-width: 0px;"/>
        <path d="M1113.7,196.77l-.68,18.42-49.39,27.69c-1.33.75-2.95.77-4.3.08l-84.85-43.66-.05-17,87.75,43.12,51.52-28.64Z" style="fill: #5f6266; stroke-width: 0px;"/>
        <path d="M1113.69,196.76l-7.93,4.56-39.65,22.83c-2.36,1.36-5.23,1.46-7.68.28l-83.2-40.06c-1.04-.5-1.31-1.68-.87-2.56.2-.41.56-.75,1.07-.93l52.08-16.25c1.76-.55,3.66-.52,5.41.09l34.05,11.82,15.6,5.42,30.69,10.66c1.87.61,2.13,3.15.43,4.13Z" style="fill: #434b56; stroke-width: 0px;"/>
        <polygon points="989.02 208.97 988.99 193.82 1048.06 222.01 1048 240.71 989.02 208.97" style="fill: #434b56; stroke-width: 0px;"/>
        <path d="M1105.77,201.33l-39.65,22.83c-2.36,1.36-5.23,1.46-7.68.28l-83.2-40.06c-1.04-.5-1.31-1.68-.87-2.56,21.1-4.21,63.92-11.17,92.61-5.27,5.9,1.21,11.21,2.97,15.6,5.42,1.39.77,2.69,1.61,3.89,2.53,8.27,6.31,14.55,11.95,19.29,16.82Z" style="fill: #707e8c; stroke-width: 0px;"/>
        <polygon points="1005.92 189.25 1048.8 210.83 1052.98 207.84 1010.92 186.96 1005.92 189.25" style="fill: #434b56; stroke-width: 0px;"/>
        <polygon points="992.42 205.31 992.72 200.98 1008.53 208.14 1008.38 213.06 992.42 205.31" style="fill: #242b33; stroke-width: 0px;"/>
        <polygon points="1012.26 214.26 1012.56 209.93 1017.78 212.32 1017.03 217.24 1012.26 214.26" style="fill: #242b33; stroke-width: 0px;"/>
        <polygon points="1020.31 218.73 1020.76 214.56 1025.98 216.64 1025.24 221.57 1020.31 218.73" style="fill: #242b33; stroke-width: 0px;"/>
        <path d="M1048.51,217.39s8.2,5.37,12.68,5.07c4.48-.3,13.87-5.52,13.87-5.52,0,0-10.59,7.46-12.98,7.31s-13.57-6.86-13.57-6.86Z" style="fill: #434b56; stroke-width: 0px;"/>
        <path d="M1127.11,92.69l.46-1.89c.18-.73.83-1.24,1.58-1.24h0c1.03,0,1.8.95,1.59,1.96l-.25,1.17h-3.38Z" style="fill: #fff; stroke-width: 0px;"/>
        <circle cx="1029.34" cy="220.78" r="1.23" style="fill: #a3ea2a; stroke-width: 0px;"/>
        <circle cx="1034.25" cy="223.23" r="1.23" style="fill: #a3ea2a; stroke-width: 0px;"/>
        <circle cx="1039.17" cy="225.69" r="1.23" style="fill: #a3ea2a; stroke-width: 0px;"/>
      </g>
    </g>
  </g>
  <g style="opacity: .59;">
    <g>
      <g id="_1" data-name="1">
        <path d="M856.05,186.87l-.23-.08.03-.91v-.15s.02-.16.02-.16c-.04.04-.07.07-.08.08l-.13.1-.11-.24.36-.28.19.06-.05,1.56Z" style="fill: #fff; stroke-width: 0px;"/>
      </g>
      <g id="_0" data-name="0">
        <path d="M855.38,185.85c0,.27-.04.46-.11.57-.06.11-.17.14-.29.1-.11-.03-.22-.14-.28-.3-.06-.16-.09-.37-.08-.63s.04-.47.11-.58c.06-.11.16-.14.29-.1.11.03.22.14.28.3.06.16.09.37.08.64ZM854.85,185.67c0,.19,0,.33.02.42.01.1.08.18.15.17.04,0,.07-.04.08-.09.03-.07.04-.21.05-.4s0-.33-.03-.43c-.01-.08-.06-.15-.11-.17s-.1.01-.12.09c-.02.08-.04.21-.04.4Z" style="fill: #fff; stroke-width: 0px;"/>
      </g>
      <g id="_0-2" data-name="0">
        <path d="M860.4,185.21c-.02.39-.07.66-.17.82-.09.16-.23.21-.42.15s-.3-.2-.38-.42c-.08-.22-.11-.52-.1-.89s.07-.66.17-.82c.09-.16.23-.21.41-.15s.31.19.39.42c.08.22.12.53.1.9ZM859.66,184.96c-.01.28,0,.48.02.6.03.13.08.2.16.23s.13-.02.17-.13c.04-.11.06-.3.08-.57s0-.48-.03-.61c-.03-.13-.08-.21-.15-.23s-.13.02-.17.13c-.04.11-.06.31-.08.58h0Z" style="fill: #fff; stroke-width: 0px;"/>
      </g>
      <g id="_1-2" data-name="1">
        <path d="M858.88,185.83l-.32-.11.05-1.28v-.21s.03-.23.03-.23c-.06.06-.09.1-.12.12l-.18.15-.14-.33.51-.41.26.08-.09,2.21h0Z" style="fill: #fff; stroke-width: 0px;"/>
      </g>
      <g id="_0-3" data-name="0">
        <path d="M857.96,184.42c-.01.39-.07.65-.16.81-.09.15-.23.2-.41.14s-.3-.2-.39-.42c-.08-.22-.12-.51-.11-.88s.07-.66.16-.81c.09-.15.23-.21.41-.15s.31.19.39.41c.08.22.12.52.11.89ZM857.22,184.17c0,.27,0,.47.03.59.03.12.08.2.16.23s.13-.02.17-.12c.03-.11.06-.29.07-.56s0-.47-.03-.6c-.03-.13-.08-.21-.16-.23s-.13.02-.17.13c-.03.11-.06.31-.07.57h0Z" style="fill: #fff; stroke-width: 0px;"/>
      </g>
      <g id="_1-3" data-name="1">
        <path d="M853.07,183.9l-.23-.08.02-.89v-.14s.01-.16.01-.16c-.04.04-.07.07-.08.08l-.13.1-.11-.23.36-.28.19.06-.03,1.54Z" style="fill: #fff; stroke-width: 0px;"/>
      </g>
      <g id="_0-4" data-name="0">
        <path d="M852.4,182.91c0,.27-.04.45-.1.56-.06.11-.16.14-.29.09-.11-.03-.22-.14-.28-.29-.06-.15-.09-.36-.09-.62,0-.27.04-.46.1-.57.06-.11.16-.14.29-.1.11.03.22.14.28.29.06.16.09.37.08.62ZM851.86,182.73c0,.19,0,.32.03.41.02.1.08.17.15.16.04,0,.07-.03.08-.09.03-.07.04-.2.04-.39s0-.32-.03-.42c-.02-.1-.08-.17-.15-.16-.04,0-.07.04-.08.09-.02.08-.03.21-.04.4Z" style="fill: #fff; stroke-width: 0px;"/>
      </g>
      <g id="_1-4" data-name="1">
        <path d="M860.34,183.75l-.33-.1.05-1.32v-.21s.03-.23.03-.23c-.06.06-.1.1-.12.12l-.19.16-.15-.34.53-.43.27.08-.1,2.28h0Z" style="fill: #fff; stroke-width: 0px;"/>
      </g>
      <g id="_0-5" data-name="0">
        <path d="M859.4,182.31c-.02.39-.07.68-.17.84-.1.16-.24.21-.42.15s-.31-.2-.4-.42c-.09-.22-.12-.52-.11-.91s.07-.68.17-.84c.1-.16.24-.21.43-.16s.32.2.4.42c.09.23.12.53.1.91ZM858.63,182.07c-.01.28,0,.48.03.61.03.13.08.21.16.23s.13-.02.17-.13c.04-.11.06-.3.07-.58s0-.48-.03-.61c-.03-.13-.08-.21-.16-.23s-.14.02-.17.13c-.04.11-.06.3-.07.58Z" style="fill: #fff; stroke-width: 0px;"/>
      </g>
      <g id="_1-5" data-name="1">
        <path d="M856.16,182.43l-.32-.1.04-1.26v-.2s.02-.22.02-.22c-.06.06-.1.1-.12.12l-.18.15-.15-.33.51-.41.27.08-.07,2.18Z" style="fill: #fff; stroke-width: 0px;"/>
      </g>
      <g id="_0-6" data-name="0">
        <path d="M855.23,181.05c-.01.38-.06.64-.15.8-.09.15-.23.2-.41.14s-.31-.19-.39-.41c-.08-.22-.12-.5-.11-.86s.06-.64.15-.8c.09-.15.23-.2.41-.15s.31.19.39.4c.09.22.13.51.12.87ZM854.48,180.82c0,.26,0,.46.03.58.03.13.08.2.16.22s.13-.02.17-.12c.03-.11.06-.29.07-.55s0-.46-.04-.58c-.03-.12-.09-.2-.16-.22s-.13.02-.17.13c-.03.11-.06.29-.07.56h0Z" style="fill: #fff; stroke-width: 0px;"/>
      </g>
      <g id="_1-6" data-name="1">
        <path d="M853.71,181.66l-.32-.1.03-1.24v-.2s.02-.22.02-.22c-.06.06-.09.1-.11.12l-.18.14-.15-.32.51-.4.27.08-.05,2.14Z" style="fill: #fff; stroke-width: 0px;"/>
      </g>
      <g id="_0-7" data-name="0">
        <path d="M852.77,180.3c0,.37-.06.63-.15.78-.09.15-.23.2-.41.14s-.31-.19-.39-.4c-.09-.21-.13-.49-.12-.85s.06-.63.15-.79c.09-.15.23-.2.41-.15s.31.18.4.4c.09.22.13.5.12.86ZM852.02,180.07c0,.26,0,.45.04.57.03.12.08.19.16.22s.13-.02.17-.12c.03-.11.06-.29.06-.54s0-.46-.04-.58c-.03-.12-.08-.2-.16-.22s-.13.02-.17.12c-.03.11-.06.28-.06.55h0Z" style="fill: #fff; stroke-width: 0px;"/>
      </g>
      <g id="_0-8" data-name="0">
        <path d="M858.39,177.04c-.12-.31-.3-.49-.56-.56s-.46,0-.59.23c-.13.23-.21.61-.23,1.15s.04.93.15,1.24c.12.3.3.49.55.56s.45,0,.59-.22c.13-.22.21-.61.23-1.15.02-.53-.03-.94-.16-1.25ZM857.99,178.95c-.05.15-.13.21-.24.18s-.19-.14-.22-.31c-.04-.18-.05-.46-.04-.83s.04-.64.1-.79c.05-.15.14-.21.24-.18s.18.13.22.31c.04.18.06.46.04.84-.01.38-.04.64-.1.79Z" style="fill: #fff; stroke-width: 0px;"/>
      </g>
      <g id="_1-7" data-name="1">
        <path d="M856.39,179.22l-.46-.13.05-1.77v-.29s.03-.32.03-.32c-.08.09-.13.14-.17.17l-.26.21-.21-.45.73-.59.38.1-.09,3.06Z" style="fill: #fff; stroke-width: 0px;"/>
      </g>
      <g id="_1-8" data-name="1">
        <path d="M854.65,178.71l-.46-.13.04-1.75v-.28s.03-.31.03-.31c-.08.09-.13.14-.17.16l-.26.21-.22-.44.72-.58.38.1-.08,3.02h0Z" style="fill: #fff; stroke-width: 0px;"/>
      </g>
      <g id="_1-9" data-name="1">
        <path d="M852.91,178.2l-.46-.13.03-1.73v-.28s.02-.31.02-.31c-.08.08-.13.14-.17.16l-.26.21-.22-.44.72-.57.38.1-.05,2.99Z" style="fill: #fff; stroke-width: 0px;"/>
      </g>
      <g id="_10" data-name="10">
        <path d="M858.4,175.06l-.47-.12.06-1.78v-.29s.03-.32.03-.32c-.08.09-.14.15-.17.17l-.27.22-.21-.45.74-.62.39.09-.11,3.09h0Z" style="fill: #fff; stroke-width: 0px;"/>
        <path d="M860.46,172.8c-.12-.31-.31-.49-.56-.55s-.46.02-.6.25c-.13.23-.21.62-.23,1.17s.03.94.15,1.24c.12.3.31.49.56.55s.46-.01.6-.24c.14-.23.22-.62.24-1.17.02-.53-.03-.94-.15-1.25ZM860.04,174.75c-.06.15-.14.22-.25.19s-.19-.13-.23-.31c-.04-.18-.05-.46-.04-.84s.05-.65.1-.81c.06-.15.14-.22.25-.19s.18.13.22.31c.04.18.06.46.04.84s-.05.66-.1.81Z" style="fill: #fff; stroke-width: 0px;"/>
      </g>
      <g id="_10-2" data-name="10">
        <path d="M853.01,173.66l-.47-.12.03-1.73v-.28s.02-.31.02-.31c-.08.09-.13.14-.17.17l-.26.21-.22-.43.73-.59.38.09-.05,2.99Z" style="fill: #fff; stroke-width: 0px;"/>
        <path d="M855.19,172.7c-.01.53-.09.91-.22,1.13-.13.22-.33.3-.59.23s-.44-.25-.57-.54c-.12-.29-.18-.7-.17-1.2s.08-.9.21-1.13c.13-.22.33-.3.59-.24s.45.24.57.54c.13.3.19.71.17,1.22ZM854.1,172.43c0,.37,0,.64.05.82.04.17.12.27.23.3s.19-.03.24-.18c.05-.15.08-.41.09-.78s0-.65-.05-.82c-.05-.17-.12-.27-.23-.3s-.19.04-.24.18c-.05.15-.08.41-.09.78h0Z" style="fill: #fff; stroke-width: 0px;"/>
      </g>
      <g id="Layer_2" data-name="Layer 2">
        <path id="cloud" d="M859.95,170.29c-.24-2.55-1.77-4.74-3.69-5.13l-.69-.14c-.43-3.54-2.65-6.43-5.36-6.87s-5,1.57-5.5,4.72c-1.96-.13-3.47,1.59-3.43,4.06.04,2.64,1.79,5.25,3.89,5.82l5.64,1.52c.3.07.54-.2.54-.61,0-.39-.23-.76-.52-.84l-5.66-1.47c-1.51-.39-2.76-2.26-2.79-4.16s1.21-3.18,2.76-2.86c.57.12,1.13.46,1.6.98.22.25.52.29.71.08h0c.22-.23.22-.68,0-1-.02-.03-.04-.06-.07-.09-.46-.52-.99-.91-1.55-1.15.47-2.41,2.25-3.92,4.35-3.55,2.21.38,4.03,2.83,4.3,5.76-.18.08-.35.19-.51.3-.25.18-.32.63-.16,1,.02.04.03.08.06.11h0c.19.3.49.39.71.23.48-.35,1.04-.47,1.61-.34,1.37.29,2.46,1.86,2.64,3.66.04.37.25.68.52.75h0c.3.08.56-.21.58-.63,0-.06,0-.11,0-.15Z" style="fill: #fff; stroke-width: 0px;"/>
      </g>
    </g>
  </g>
</svg>